<?xml version="1.0" encoding="utf-8"?>
<!-- Generator: Adobe Illustrator 24.2.3, SVG Export Plug-In . SVG Version: 6.00 Build 0)  -->
<svg version="1.1" id="Layer_1" xmlns="http://www.w3.org/2000/svg" xmlns:xlink="http://www.w3.org/1999/xlink" x="0px" y="0px"
	 viewBox="0 0 320 550.8" style="enable-background:new 0 0 320 550.8;" xml:space="preserve">
<path d="M282.8,23l-240,0c0,0-25,0.8-25,35c0,34.2,25,35,25,35l-5.5,0l240,0c0,0,25,0.8,25,35c0,34.2-25,35-25,35l5.5,0l-240,0
	c0,0-25,0.8-25,35c0,34.2,25,35,25,35l-5.5,0l240,0c0,0,25,0.8,25,35c0,34.2-25,35-25,35l8.3,0l-240,0c0,0-25,0.8-25,35
	c0,34.2,25,35,25,35l-5.5,0l240,0c0,0,25,0.8,25,35c0,34.2-25,35-25,35H40c0,0-25,4-25,38.5S40,520,40,520h215c0,0,20-1,20-25
	s-20-25-20-25H65c0,0-20,1.7-20,25c0,24,20,25,20,25h168.6"/>
</svg>
